<?xml version="1.0" standalone="no"?>
<!DOCTYPE svg PUBLIC "-//W3C//DTD SVG 20010904//EN"
 "http://www.w3.org/TR/2001/REC-SVG-20010904/DTD/svg10.dtd">
<svg version="1.0" xmlns="http://www.w3.org/2000/svg"
 width="1262.000000pt" height="1280.000000pt" viewBox="0 0 1262.000000 1280.000000"
 preserveAspectRatio="xMidYMid meet">
<metadata>
Created by potrace 1.15, written by Peter Selinger 2001-2017
</metadata>
<g transform="translate(0.000000,1280.000000) scale(0.100000,-0.100000)"
fill="#000000" stroke="none">
<path d="M850 12759 c-102 -42 -130 -165 -68 -290 37 -74 167 -210 264 -277
l62 -42 73 52 c109 77 211 184 251 265 61 125 39 236 -58 283 -22 11 -56 20
-75 20 -52 0 -119 -39 -158 -92 l-35 -46 -27 41 c-40 59 -89 90 -152 94 -29 1
-63 -2 -77 -8z"/>
<path d="M2270 12748 c-95 -48 -115 -164 -50 -286 44 -83 113 -157 225 -242
l94 -72 68 48 c100 70 222 198 258 268 59 120 40 232 -50 284 -81 47 -197 10
-247 -78 -13 -22 -25 -40 -28 -39 -3 0 -18 21 -35 47 -34 54 -99 92 -155 92
-20 0 -56 -10 -80 -22z"/>
<path d="M3703 12749 c-125 -62 -119 -222 14 -382 47 -56 173 -165 230 -199
27 -16 29 -15 82 20 30 20 94 74 143 120 108 103 159 194 160 284 2 192 -222
244 -332 78 l-28 -43 -15 29 c-33 64 -112 114 -179 114 -18 0 -52 -9 -75 -21z"/>
<path d="M5150 12759 c-101 -40 -130 -165 -68 -290 36 -74 165 -208 264 -276
l62 -43 71 51 c248 174 352 387 248 506 -35 40 -81 63 -127 63 -65 0 -144 -51
-177 -114 l-15 -28 -18 28 c-25 41 -80 91 -113 103 -35 13 -93 13 -127 0z"/>
<path d="M6565 12748 c-123 -72 -108 -239 36 -401 27 -30 92 -88 144 -127 l94
-72 68 48 c100 70 222 198 258 268 59 120 40 232 -50 284 -81 47 -202 8 -250
-81 -11 -20 -22 -37 -25 -37 -3 0 -15 18 -28 40 -50 88 -166 125 -247 78z"/>
<path d="M8003 12749 c-106 -53 -119 -184 -32 -320 50 -77 113 -140 218 -218
l82 -61 62 42 c34 23 101 80 149 128 105 104 148 184 149 272 3 189 -220 244
-330 81 l-27 -41 -35 46 c-39 53 -106 92 -159 92 -19 0 -54 -9 -77 -21z"/>
<path d="M9450 12759 c-101 -40 -130 -165 -68 -290 37 -75 168 -212 264 -277
l62 -41 70 49 c247 174 353 388 249 507 -72 82 -175 84 -260 4 -16 -14 -36
-39 -44 -55 l-15 -28 -18 28 c-25 41 -80 91 -113 103 -35 13 -93 13 -127 0z"/>
<path d="M10872 12754 c-81 -42 -113 -142 -76 -244 35 -98 156 -231 302 -332
l42 -29 66 47 c138 99 246 220 279 314 59 168 -77 311 -231 241 -41 -18 -104
-84 -104 -108 0 -24 -15 -13 -38 27 -47 83 -163 123 -240 84z"/>
<path d="M110 12118 c-59 -41 -75 -72 -75 -146 0 -54 6 -79 29 -127 36 -73
162 -207 256 -271 66 -45 68 -45 96 -31 53 28 192 146 235 200 23 28 55 80 72
115 25 54 29 72 25 123 -5 66 -24 100 -78 137 -38 26 -112 30 -163 8 -30 -12
-80 -60 -107 -103 -9 -14 -12 -15 -17 -4 -12 29 -79 95 -110 108 -51 21 -125
17 -163 -9z"/>
<path d="M1540 12117 c-117 -78 -95 -246 53 -403 60 -65 210 -184 231 -184 6
0 50 29 98 65 166 125 261 259 261 369 0 113 -68 179 -178 174 -72 -4 -114
-29 -154 -93 l-27 -43 -28 44 c-56 89 -179 123 -256 71z"/>
<path d="M2982 12123 c-18 -9 -44 -35 -59 -60 -22 -37 -25 -53 -21 -106 7
-110 80 -220 225 -337 126 -102 122 -101 190 -55 91 62 235 211 267 276 39 81
44 152 14 208 -32 62 -66 84 -137 89 -51 4 -67 1 -105 -22 -24 -14 -56 -45
-72 -69 l-27 -44 -31 46 c-40 59 -96 91 -161 91 -27 0 -65 -8 -83 -17z"/>
<path d="M4411 12118 c-60 -41 -76 -71 -76 -146 0 -54 6 -79 29 -127 36 -73
162 -207 256 -271 78 -53 72 -53 175 25 101 78 182 168 222 247 32 65 35 79
31 134 -5 67 -24 101 -79 138 -29 20 -44 23 -96 20 -71 -4 -101 -22 -148 -86
-16 -22 -32 -41 -35 -41 -3 0 -18 19 -35 41 -47 64 -77 82 -148 86 -52 3 -67
0 -96 -20z"/>
<path d="M5840 12117 c-52 -34 -75 -82 -74 -152 1 -77 44 -163 128 -253 61
-65 208 -182 229 -182 22 0 185 130 242 192 109 121 145 247 95 335 -32 57
-65 77 -135 81 -75 4 -126 -23 -171 -89 l-31 -46 -27 44 c-56 88 -180 122
-256 70z"/>
<path d="M7282 12124 c-57 -29 -77 -68 -77 -154 0 -88 19 -133 92 -225 47 -57
185 -177 237 -205 24 -12 30 -11 83 25 90 61 233 210 266 277 75 156 21 286
-124 296 -49 4 -65 0 -103 -22 -25 -14 -56 -45 -72 -70 l-28 -44 -27 43 c-40
64 -82 89 -154 92 -42 3 -70 -1 -93 -13z"/>
<path d="M8710 12118 c-59 -41 -75 -72 -75 -146 0 -54 6 -79 29 -127 36 -73
162 -207 256 -271 78 -53 72 -53 175 25 91 70 178 164 216 233 29 55 34 72 34
135 0 80 -15 110 -75 151 -38 26 -112 30 -163 9 -31 -13 -98 -79 -110 -108 -5
-11 -8 -10 -17 4 -27 43 -77 91 -107 103 -51 22 -125 18 -163 -8z"/>
<path d="M10139 12117 c-19 -12 -44 -42 -57 -67 -46 -89 -6 -212 110 -336 61
-66 209 -184 230 -184 22 0 147 97 219 171 98 99 139 177 139 262 0 116 -69
183 -181 175 -67 -5 -119 -39 -154 -100 l-20 -36 -30 45 c-42 62 -97 93 -167
93 -40 0 -64 -6 -89 -23z"/>
<path d="M11582 12124 c-53 -27 -76 -69 -80 -145 -4 -60 -1 -74 29 -135 23
-46 58 -93 109 -144 72 -74 196 -170 218 -170 21 0 172 122 234 189 84 90 121
166 122 246 1 107 -52 166 -155 173 -49 4 -65 0 -103 -22 -24 -14 -57 -45 -73
-70 l-29 -43 -22 38 c-36 63 -84 93 -156 96 -43 3 -71 -1 -94 -13z"/>
<path d="M894 11510 c-48 -15 -101 -80 -109 -133 -19 -124 78 -272 278 -422
l78 -58 52 36 c197 136 307 282 307 407 0 66 -23 116 -70 147 -86 59 -187 32
-259 -68 l-27 -37 -35 46 c-19 25 -48 54 -65 64 -38 22 -109 30 -150 18z"/>
<path d="M2310 11498 c-96 -49 -118 -153 -60 -277 36 -75 177 -223 273 -286
l57 -38 95 72 c204 156 296 316 251 436 -56 146 -239 151 -326 9 l-22 -34 -27
37 c-37 50 -59 69 -104 88 -50 21 -85 19 -137 -7z"/>
<path d="M3740 11498 c-94 -48 -116 -161 -55 -283 39 -76 141 -185 243 -258
l81 -58 63 42 c92 62 227 202 262 273 61 121 39 234 -55 284 -83 45 -191 10
-241 -78 -26 -45 -34 -49 -43 -21 -10 34 -82 97 -123 109 -56 17 -82 15 -132
-10z"/>
<path d="M5194 11509 c-47 -14 -101 -79 -109 -131 -18 -121 71 -263 253 -403
53 -41 100 -75 103 -75 16 0 151 108 217 172 159 158 190 335 72 415 -86 59
-187 32 -259 -68 l-27 -37 -35 46 c-56 76 -133 105 -215 81z"/>
<path d="M6620 11504 c-71 -31 -101 -79 -101 -160 0 -125 119 -284 309 -412
l52 -35 95 72 c157 120 246 240 261 352 13 95 -57 185 -152 195 -65 7 -127
-24 -174 -89 -30 -41 -36 -45 -45 -31 -25 43 -73 89 -110 105 -48 22 -88 23
-135 3z"/>
<path d="M8040 11498 c-93 -47 -116 -160 -57 -281 36 -73 143 -187 245 -260
l81 -58 63 42 c92 62 227 202 262 273 61 121 39 234 -55 284 -83 45 -191 10
-241 -78 -13 -22 -25 -40 -28 -40 -3 1 -18 20 -33 45 -19 30 -43 51 -79 69
-64 32 -101 33 -158 4z"/>
<path d="M9485 11507 c-17 -8 -45 -30 -62 -50 -81 -93 -38 -244 111 -392 57
-57 193 -165 208 -165 15 0 167 121 215 171 71 74 89 99 118 161 61 130 9 261
-112 284 -68 13 -159 -36 -203 -109 l-17 -27 -27 40 c-52 79 -159 119 -231 87z"/>
<path d="M10920 11504 c-137 -60 -137 -226 1 -392 44 -52 172 -162 227 -194
l29 -18 74 52 c150 105 256 235 280 343 31 139 -88 257 -216 215 -45 -15 -100
-62 -122 -104 -15 -29 -17 -29 -27 -12 -25 44 -73 90 -111 107 -48 22 -88 23
-135 3z"/>
<path d="M149 10867 c-57 -38 -79 -81 -79 -152 0 -80 38 -158 121 -248 61 -67
210 -187 232 -187 26 0 126 77 213 164 139 139 182 252 134 350 -36 76 -105
108 -195 92 -40 -8 -108 -64 -131 -109 l-15 -29 -29 45 c-57 90 -175 125 -251
74z"/>
<path d="M1595 10876 c-42 -18 -83 -69 -91 -112 -18 -96 31 -206 140 -318 72
-72 193 -166 216 -166 23 0 144 93 216 166 130 131 175 264 121 358 -33 58
-67 79 -134 83 -72 5 -122 -21 -172 -89 l-35 -46 -14 26 c-47 92 -159 136
-247 98z"/>
<path d="M3025 10874 c-46 -24 -63 -43 -81 -90 -35 -91 8 -202 126 -327 72
-77 200 -177 226 -177 23 0 171 119 233 187 83 90 121 168 121 248 0 48 -5 70
-23 96 -76 112 -224 106 -304 -14 l-32 -48 -15 28 c-19 38 -75 89 -109 102
-41 16 -107 13 -142 -5z"/>
<path d="M4449 10868 c-52 -29 -80 -85 -80 -154 0 -113 97 -250 268 -378 l86
-65 61 41 c95 64 238 212 272 283 76 157 -1 305 -151 293 -65 -5 -113 -36
-151 -95 l-26 -42 -32 47 c-60 86 -167 117 -247 70z"/>
<path d="M5895 10876 c-17 -7 -43 -28 -58 -45 -76 -90 -33 -244 108 -386 71
-72 192 -165 215 -165 23 0 144 93 216 166 130 131 175 264 121 358 -36 63
-68 81 -146 81 -59 0 -72 -4 -105 -28 -20 -16 -49 -47 -63 -69 l-27 -40 -14
29 c-48 94 -158 138 -247 99z"/>
<path d="M7325 10875 c-46 -25 -63 -44 -81 -91 -35 -91 6 -202 120 -322 74
-78 205 -182 229 -182 24 0 173 117 236 186 83 91 121 169 121 249 0 48 -5 70
-23 96 -75 112 -224 106 -303 -13 l-32 -47 -23 36 c-43 65 -92 96 -157 100
-39 3 -66 -1 -87 -12z"/>
<path d="M8749 10868 c-52 -29 -80 -85 -80 -154 0 -113 97 -250 268 -378 l86
-65 61 41 c94 63 236 212 271 283 38 78 41 162 8 215 -70 113 -237 103 -312
-18 l-24 -40 -32 46 c-59 86 -167 117 -246 70z"/>
<path d="M10195 10876 c-144 -64 -122 -257 49 -430 74 -75 194 -166 217 -166
22 0 147 98 219 170 155 156 183 329 68 412 -27 18 -46 23 -99 23 -57 0 -71
-4 -103 -28 -20 -16 -48 -46 -62 -67 l-26 -39 -32 47 c-54 81 -150 114 -231
78z"/>
<path d="M11625 10874 c-46 -24 -63 -43 -81 -90 -35 -91 7 -202 120 -322 73
-77 165 -153 209 -173 22 -10 32 -7 84 27 92 61 224 199 261 273 75 150 19
287 -121 299 -81 6 -150 -34 -190 -112 l-15 -30 -15 30 c-20 39 -75 90 -110
103 -41 16 -107 13 -142 -5z"/>
<path d="M884 10252 c-150 -71 -131 -255 45 -433 42 -41 106 -97 143 -123 80
-56 74 -57 207 51 97 78 184 186 207 255 33 100 12 190 -55 233 -91 59 -188
35 -260 -66 l-27 -37 -35 46 c-59 79 -149 109 -225 74z"/>
<path d="M2327 10256 c-75 -28 -107 -79 -106 -168 1 -125 95 -253 291 -396 31
-23 60 -42 64 -42 19 0 175 124 229 182 112 122 155 234 121 323 -55 142 -241
147 -327 8 -21 -33 -24 -35 -33 -18 -21 36 -70 86 -96 100 -43 22 -101 27
-143 11z"/>
<path d="M3769 10260 c-44 -13 -74 -38 -98 -81 -31 -55 -26 -133 14 -215 33
-68 175 -216 268 -279 l57 -38 58 38 c92 63 234 211 267 278 33 68 42 140 26
190 -23 69 -121 127 -188 111 -51 -12 -108 -51 -133 -93 -28 -46 -36 -49 -45
-22 -10 31 -90 99 -131 110 -44 12 -58 13 -95 1z"/>
<path d="M5184 10252 c-70 -33 -111 -108 -101 -184 15 -109 134 -263 289 -372
79 -55 71 -57 199 44 143 113 220 227 227 336 5 76 -16 126 -67 159 -92 59
-188 35 -261 -67 l-28 -39 -32 46 c-54 78 -151 111 -226 77z"/>
<path d="M6627 10256 c-73 -26 -108 -77 -109 -156 0 -113 77 -235 228 -357
132 -107 121 -104 201 -47 256 181 357 402 239 520 -86 86 -220 56 -297 -66
l-16 -25 -16 31 c-22 43 -80 91 -124 103 -48 14 -59 13 -106 -3z"/>
<path d="M8069 10260 c-44 -13 -74 -38 -98 -81 -31 -55 -26 -133 14 -215 33
-68 175 -216 268 -279 l57 -38 58 38 c91 62 234 211 266 277 50 103 47 185 -9
247 -79 87 -219 69 -285 -38 -14 -22 -27 -41 -30 -41 -3 0 -13 13 -23 29 -25
43 -82 89 -124 100 -43 12 -57 12 -94 1z"/>
<path d="M9485 10252 c-152 -72 -133 -256 44 -433 42 -41 107 -97 144 -123
l68 -49 70 48 c131 90 245 218 277 314 30 87 3 191 -60 229 -92 55 -186 30
-258 -70 l-29 -39 -27 41 c-53 80 -155 116 -229 82z"/>
<path d="M10920 10255 c-73 -33 -103 -83 -103 -166 1 -106 86 -234 232 -349
132 -104 118 -101 197 -45 175 123 289 279 289 395 0 161 -177 235 -293 122
-21 -20 -45 -48 -53 -61 l-15 -23 -27 41 c-54 81 -153 119 -227 86z"/>
<path d="M170 9629 c-101 -40 -130 -165 -68 -290 37 -75 168 -212 264 -277
l61 -41 39 26 c135 91 253 214 297 310 31 70 30 158 -3 206 -46 68 -144 96
-213 61 -42 -21 -85 -62 -104 -98 l-15 -28 -17 28 c-59 95 -157 136 -241 103z"/>
<path d="M1588 9620 c-61 -33 -83 -74 -83 -155 0 -60 5 -79 34 -131 45 -85
114 -159 225 -244 l95 -72 66 47 c139 100 247 221 280 315 60 169 -77 311
-231 241 -41 -18 -104 -84 -104 -108 0 -24 -15 -13 -38 27 -49 86 -164 124
-244 80z"/>
<path d="M3023 9619 c-178 -88 -84 -349 199 -548 l71 -50 61 41 c100 68 230
204 266 279 71 151 16 286 -122 296 -69 6 -129 -25 -173 -89 l-32 -46 -34 47
c-39 52 -106 91 -159 91 -19 0 -54 -9 -77 -21z"/>
<path d="M4470 9629 c-101 -42 -130 -165 -68 -290 37 -75 168 -212 264 -277
l61 -41 39 26 c122 82 244 205 289 293 24 47 37 113 30 157 -12 79 -88 143
-170 143 -61 0 -139 -52 -172 -113 l-15 -29 -31 45 c-43 62 -87 90 -150 94
-29 1 -63 -2 -77 -8z"/>
<path d="M5892 9623 c-55 -27 -85 -76 -90 -145 -4 -53 -1 -67 33 -136 44 -87
144 -195 258 -276 l68 -48 77 58 c108 82 158 129 207 199 78 112 94 193 53
275 -60 119 -219 118 -307 -1 l-34 -47 -31 46 c-55 81 -156 114 -234 75z"/>
<path d="M7324 9621 c-46 -21 -79 -66 -89 -123 -22 -119 95 -293 289 -429 l68
-48 62 41 c33 23 100 80 147 127 107 107 149 185 149 273 0 70 -17 107 -66
144 -80 61 -197 35 -260 -58 l-31 -46 -34 47 c-61 83 -151 110 -235 72z"/>
<path d="M8770 9629 c-102 -41 -131 -162 -69 -287 39 -81 152 -201 254 -271
l73 -51 79 58 c105 78 174 147 222 221 77 120 77 226 0 295 -86 78 -205 53
-278 -57 l-24 -36 -27 37 c-55 75 -101 103 -168 101 -20 0 -48 -5 -62 -10z"/>
<path d="M10188 9620 c-61 -33 -83 -74 -83 -155 0 -58 5 -81 30 -130 35 -70
166 -207 261 -272 l62 -43 73 52 c111 77 209 181 252 268 44 88 48 144 15 210
-60 119 -219 118 -307 -1 l-34 -47 -31 46 c-57 84 -158 114 -238 72z"/>
<path d="M11616 9617 c-45 -25 -86 -93 -86 -142 0 -121 114 -280 291 -404 l71
-51 62 43 c102 70 228 202 266 279 29 60 32 74 28 133 -6 100 -57 155 -150
162 -70 6 -131 -26 -174 -89 l-31 -46 -34 47 c-63 85 -164 114 -243 68z"/>
<path d="M5251 9009 c-42 -9 -79 -36 -109 -80 -21 -29 -23 -43 -19 -100 8
-120 98 -245 270 -374 89 -66 83 -67 183 8 89 68 197 186 229 252 55 111 37
219 -44 272 -77 52 -199 19 -252 -68 -13 -21 -26 -39 -29 -39 -3 0 -15 16 -27
34 -46 71 -130 110 -202 95z"/>
<path d="M900 8988 c-60 -42 -75 -71 -75 -151 1 -82 19 -125 91 -217 46 -58
102 -109 198 -179 67 -50 66 -50 162 22 85 65 198 187 231 249 22 43 27 67 28
124 0 62 -3 75 -28 107 -15 20 -41 44 -57 52 -37 19 -123 19 -159 1 -28 -15
-94 -82 -104 -107 -5 -11 -8 -10 -17 4 -27 43 -77 91 -107 103 -51 22 -125 18
-163 -8z"/>
<path d="M2329 8987 c-84 -55 -98 -160 -39 -278 37 -73 168 -210 263 -273 68
-47 64 -48 190 54 147 119 219 227 225 340 3 55 0 70 -20 100 -36 54 -83 80
-140 80 -79 0 -144 -41 -182 -114 l-14 -28 -15 28 c-17 33 -71 86 -104 103
-39 20 -126 14 -164 -12z"/>
<path d="M3763 8990 c-83 -55 -100 -161 -42 -278 38 -77 147 -192 252 -267
l69 -48 31 18 c55 32 153 113 208 173 119 128 156 261 97 349 -70 106 -227 97
-304 -18 l-30 -46 -22 38 c-37 65 -84 93 -161 97 -54 2 -72 -1 -98 -18z"/>
<path d="M6629 8987 c-19 -12 -44 -42 -57 -67 -30 -58 -25 -124 15 -206 33
-69 175 -218 266 -279 68 -46 64 -47 190 55 147 119 219 227 225 340 3 55 0
70 -20 100 -50 74 -139 101 -221 66 -30 -12 -80 -60 -107 -103 -9 -14 -12 -15
-17 -4 -10 25 -76 92 -104 107 -44 22 -130 18 -170 -9z"/>
<path d="M8070 8991 c-127 -67 -110 -240 41 -405 46 -51 195 -171 225 -183 21
-8 134 76 220 161 141 142 185 278 121 374 -69 104 -226 95 -302 -18 l-30 -45
-30 45 c-56 83 -163 115 -245 71z"/>
<path d="M9520 9002 c-65 -31 -100 -87 -100 -163 0 -115 98 -253 273 -384 89
-66 83 -67 183 8 90 68 197 186 229 252 40 80 44 156 13 210 -69 118 -235 115
-309 -6 -13 -21 -27 -39 -31 -39 -3 0 -15 15 -26 34 -35 59 -86 90 -156 93
-33 1 -68 -1 -76 -5z"/>
<path d="M10929 8987 c-19 -12 -44 -42 -57 -67 -30 -57 -25 -128 14 -209 32
-65 177 -216 267 -276 68 -46 61 -48 191 58 156 126 233 251 224 363 -10 120
-127 188 -241 140 -30 -12 -80 -60 -107 -103 -9 -14 -12 -15 -17 -4 -10 25
-76 92 -104 107 -44 22 -130 18 -170 -9z"/>
<path d="M205 8377 c-48 -22 -93 -80 -100 -131 -19 -121 73 -264 260 -407 l95
-72 58 39 c98 66 237 211 272 285 66 140 19 271 -107 295 -68 13 -159 -36
-203 -109 l-17 -27 -27 40 c-53 80 -158 120 -231 87z"/>
<path d="M1655 8383 c-32 -8 -84 -51 -101 -84 -8 -17 -15 -55 -15 -85 0 -116
98 -254 274 -385 l79 -59 30 17 c61 36 190 146 235 201 115 141 131 270 42
354 -85 81 -227 48 -286 -66 -15 -29 -17 -29 -27 -12 -55 94 -144 140 -231
119z"/>
<path d="M3064 8371 c-65 -29 -89 -72 -89 -156 0 -57 5 -81 29 -130 35 -71
169 -211 264 -274 l63 -42 67 47 c98 70 222 198 256 268 61 121 39 234 -54
283 -54 29 -101 29 -157 2 -43 -21 -103 -83 -103 -106 0 -20 -18 -15 -25 6
-10 34 -82 97 -123 109 -54 16 -80 15 -128 -7z"/>
<path d="M4505 8377 c-73 -34 -112 -105 -101 -186 15 -112 104 -232 261 -352
l95 -72 58 39 c31 21 99 79 149 129 118 117 157 192 151 288 -3 46 -10 72 -27
96 -27 37 -91 70 -137 71 -51 0 -129 -46 -162 -95 l-30 -45 -26 40 c-53 80
-159 120 -231 87z"/>
<path d="M5940 8374 c-194 -84 -106 -351 184 -555 l69 -49 29 18 c62 36 192
147 235 201 115 144 130 269 42 353 -85 81 -227 48 -286 -66 -15 -29 -17 -29
-27 -12 -25 44 -73 90 -111 107 -48 22 -88 23 -135 3z"/>
<path d="M7364 8371 c-65 -29 -89 -72 -89 -156 0 -57 5 -81 29 -130 35 -71
169 -211 264 -274 l63 -42 67 47 c100 71 222 198 256 269 41 83 45 155 14 214
-65 122 -231 117 -314 -9 l-26 -40 -30 45 c-33 49 -111 95 -162 95 -17 0 -49
-9 -72 -19z"/>
<path d="M8790 8367 c-137 -72 -111 -257 59 -427 42 -42 107 -98 144 -124 l68
-49 57 39 c31 21 99 79 149 129 119 117 157 192 151 289 -5 79 -37 126 -103
151 -83 32 -175 -2 -225 -85 -26 -42 -40 -50 -40 -25 0 26 -85 103 -126 114
-58 16 -86 13 -134 -12z"/>
<path d="M10252 8383 c-37 -7 -99 -73 -111 -119 -34 -126 78 -301 282 -445
l70 -49 29 18 c16 9 65 45 108 80 186 148 268 322 204 432 -40 69 -122 103
-195 81 -46 -14 -104 -62 -126 -105 -15 -29 -17 -29 -27 -12 -55 95 -138 137
-234 119z"/>
<path d="M11664 8371 c-23 -10 -52 -34 -65 -52 -20 -29 -24 -46 -24 -109 0
-64 4 -83 30 -130 40 -73 158 -196 251 -260 l74 -51 68 47 c96 68 211 188 250
261 59 113 53 202 -18 267 -64 58 -144 60 -217 7 -22 -16 -50 -46 -63 -66
l-22 -36 -18 28 c-28 45 -60 74 -104 94 -52 23 -90 23 -142 0z"/>
<path d="M870 7741 c-105 -55 -115 -190 -24 -327 59 -88 259 -264 301 -264 22
0 171 120 232 187 83 90 121 168 121 248 0 48 -5 70 -23 96 -76 112 -224 106
-304 -14 l-32 -48 -15 28 c-19 38 -75 89 -109 102 -43 17 -108 13 -147 -8z"/>
<path d="M2299 7738 c-53 -30 -79 -82 -79 -155 0 -78 39 -157 121 -246 61 -67
210 -187 232 -187 54 0 287 221 333 315 76 158 -1 305 -152 293 -63 -5 -110
-34 -150 -93 l-28 -42 -27 43 c-56 87 -169 120 -250 72z"/>
<path d="M3730 7738 c-60 -41 -75 -71 -75 -151 0 -63 5 -80 35 -137 20 -36 66
-96 105 -135 71 -72 192 -165 215 -165 22 0 141 91 215 165 131 131 176 265
122 359 -36 63 -68 81 -146 81 -59 0 -72 -4 -105 -28 -20 -16 -48 -46 -63 -68
l-26 -39 -14 27 c-52 101 -183 145 -263 91z"/>
<path d="M5175 7744 c-46 -24 -63 -43 -81 -90 -35 -93 7 -203 125 -327 73 -77
201 -177 226 -177 23 0 173 120 234 186 83 91 121 169 121 249 0 48 -5 70 -23
96 -76 112 -224 106 -304 -14 l-32 -48 -15 28 c-19 38 -75 89 -109 102 -41 16
-107 13 -142 -5z"/>
<path d="M6600 7739 c-61 -38 -81 -76 -81 -158 0 -72 42 -158 121 -244 62 -67
211 -187 233 -187 54 0 286 221 332 315 56 116 33 230 -56 275 -83 43 -187 13
-242 -70 l-31 -47 -31 46 c-59 85 -169 116 -245 70z"/>
<path d="M8030 7738 c-54 -37 -73 -71 -78 -138 -4 -55 -1 -69 33 -136 25 -52
58 -97 108 -147 75 -76 194 -167 218 -167 22 0 147 98 219 170 123 125 170
265 118 354 -37 64 -69 81 -147 81 -59 0 -72 -4 -105 -28 -20 -16 -49 -47 -63
-69 l-27 -40 -14 29 c-52 101 -181 146 -262 91z"/>
<path d="M9475 7744 c-46 -24 -63 -43 -81 -90 -35 -91 6 -202 120 -322 70 -74
204 -182 226 -182 24 0 139 88 215 164 103 104 145 182 145 271 0 48 -5 70
-23 96 -76 112 -224 106 -304 -14 l-32 -48 -15 28 c-19 38 -75 89 -109 102
-41 16 -107 13 -142 -5z"/>
<path d="M10901 7739 c-47 -29 -68 -57 -79 -106 -20 -90 20 -189 121 -298 59
-66 208 -185 230 -185 54 0 286 221 332 315 56 117 33 230 -56 275 -83 43
-186 13 -242 -70 l-32 -47 -25 40 c-55 88 -171 124 -249 76z"/>
<path d="M177 7126 c-75 -28 -107 -78 -107 -169 0 -115 118 -275 289 -392 l70
-48 68 48 c157 111 275 264 290 374 12 85 -44 169 -128 191 -75 20 -156 -16
-206 -91 -24 -37 -29 -40 -38 -24 -20 36 -69 86 -95 100 -43 22 -101 27 -143
11z"/>
<path d="M1619 7130 c-114 -34 -150 -160 -84 -296 33 -68 175 -216 268 -279
l57 -38 58 38 c81 56 232 210 266 273 32 61 44 144 27 194 -23 71 -115 127
-184 113 -53 -11 -110 -50 -137 -94 -24 -39 -40 -52 -40 -31 0 20 -76 94 -115
111 -42 20 -74 22 -116 9z"/>
<path d="M3034 7122 c-150 -71 -131 -255 45 -433 42 -41 107 -97 144 -123 l68
-48 52 34 c139 93 260 224 292 317 33 98 11 194 -54 236 -91 59 -188 35 -260
-66 l-28 -38 -35 48 c-59 79 -149 108 -224 73z"/>
<path d="M4477 7126 c-76 -28 -107 -76 -106 -163 0 -32 8 -77 17 -101 40 -98
153 -220 289 -309 l52 -35 68 48 c156 110 272 258 289 370 13 88 -41 171 -127
194 -75 20 -156 -16 -206 -91 -24 -37 -29 -40 -38 -24 -20 36 -69 86 -95 100
-43 22 -101 27 -143 11z"/>
<path d="M5919 7130 c-44 -13 -74 -38 -98 -81 -31 -55 -26 -133 14 -215 33
-68 175 -216 268 -279 l57 -38 58 38 c31 22 98 80 148 130 123 122 169 219
150 319 -15 77 -110 144 -186 131 -54 -9 -121 -55 -145 -98 -22 -42 -31 -46
-40 -18 -10 31 -90 99 -131 110 -44 12 -58 13 -95 1z"/>
<path d="M7335 7122 c-194 -91 -106 -346 191 -558 l65 -47 68 46 c131 90 247
221 279 316 17 49 15 127 -5 168 -9 19 -32 45 -52 58 -92 59 -188 35 -261 -67
l-28 -38 -35 48 c-56 79 -147 109 -222 74z"/>
<path d="M8777 7126 c-75 -28 -109 -79 -109 -165 0 -125 95 -254 295 -400 32
-23 64 -41 71 -38 32 13 181 135 231 190 140 154 160 318 47 393 -89 60 -203
25 -272 -84 l-15 -23 -35 48 c-58 78 -136 107 -213 79z"/>
<path d="M10219 7130 c-116 -35 -151 -158 -84 -296 33 -68 175 -216 267 -278
l57 -39 58 39 c92 62 236 210 267 276 50 104 47 185 -9 247 -39 43 -100 66
-148 56 -54 -12 -116 -53 -139 -95 -26 -45 -34 -49 -43 -21 -10 31 -90 99
-131 110 -44 12 -58 13 -95 1z"/>
<path d="M11635 7121 c-78 -35 -118 -116 -100 -203 22 -101 143 -250 288 -352
l68 -49 70 48 c172 118 289 276 289 392 0 67 -27 124 -72 151 -92 55 -186 30
-258 -70 l-29 -39 -26 39 c-29 45 -66 74 -114 90 -46 16 -69 15 -116 -7z"/>
<path d="M912 6493 c-80 -39 -113 -143 -77 -241 38 -101 146 -223 289 -324
l53 -38 74 52 c224 156 333 351 267 478 -62 120 -217 120 -307 -2 l-34 -46
-31 46 c-55 81 -156 114 -234 75z"/>
<path d="M2340 6488 c-87 -45 -112 -149 -62 -260 43 -96 193 -252 309 -320
l29 -17 85 63 c110 82 199 179 239 260 29 58 32 73 28 131 -6 100 -57 155
-150 162 -70 6 -131 -26 -174 -89 l-31 -46 -34 47 c-39 53 -106 91 -159 91
-20 0 -56 -10 -80 -22z"/>
<path d="M3790 6499 c-101 -41 -130 -158 -71 -286 36 -77 165 -212 268 -281
l62 -42 78 58 c250 186 340 378 236 503 -47 56 -127 74 -196 45 -33 -13 -117
-99 -117 -119 0 -5 -13 8 -29 29 -56 77 -101 105 -169 103 -20 0 -48 -5 -62
-10z"/>
<path d="M5215 6496 c-98 -42 -122 -166 -59 -293 34 -68 167 -206 260 -270
l62 -43 73 52 c165 115 276 261 286 376 16 192 -208 261 -326 101 l-34 -47
-31 46 c-54 79 -152 112 -231 78z"/>
<path d="M6635 6487 c-45 -25 -85 -92 -85 -142 0 -122 113 -279 290 -403 l72
-52 62 43 c99 68 227 203 264 276 74 148 17 288 -121 299 -69 5 -130 -27 -173
-90 l-31 -46 -34 46 c-65 89 -161 116 -244 69z"/>
<path d="M8085 6496 c-17 -7 -43 -28 -58 -45 -78 -93 -46 -228 91 -373 55 -58
165 -149 219 -181 26 -16 246 173 307 264 74 109 81 216 19 290 -47 56 -127
74 -196 45 -33 -13 -117 -99 -117 -119 0 -5 -13 8 -29 30 -47 65 -95 96 -154
100 -30 2 -65 -2 -82 -11z"/>
<path d="M9515 6496 c-98 -42 -122 -166 -59 -293 34 -68 167 -206 260 -270
l62 -43 73 52 c226 158 334 353 267 478 -65 120 -217 120 -307 -2 l-34 -46
-31 46 c-54 79 -152 112 -231 78z"/>
<path d="M10935 6487 c-56 -31 -88 -94 -82 -164 8 -115 121 -265 286 -381 l73
-52 62 43 c86 59 226 202 260 266 37 70 46 161 21 215 -59 124 -228 127 -311
4 l-31 -46 -34 47 c-63 85 -163 113 -244 68z"/>
<path d="M237 5879 c-52 -8 -87 -36 -115 -90 -51 -96 -3 -221 137 -359 47 -47
112 -103 144 -124 68 -47 64 -48 190 54 145 117 218 227 225 337 3 50 0 69
-18 101 -42 75 -143 105 -224 67 -34 -16 -106 -89 -106 -107 0 -19 -17 -5 -40
33 -42 67 -116 102 -193 88z"/>
<path d="M1669 5880 c-118 -20 -167 -157 -104 -287 38 -77 113 -164 206 -237
123 -97 116 -96 190 -45 35 23 100 79 145 123 142 142 186 277 121 374 -34 52
-74 73 -137 74 -65 0 -126 -34 -165 -92 l-30 -45 -30 45 c-46 69 -120 103
-196 90z"/>
<path d="M3101 5879 c-39 -8 -76 -34 -105 -73 -31 -41 -29 -154 3 -216 51 -97
130 -180 265 -279 67 -50 66 -50 162 22 84 64 193 181 229 247 25 46 30 66 30
126 0 62 -3 75 -28 107 -15 20 -42 44 -58 53 -39 20 -118 20 -156 1 -30 -16
-96 -83 -106 -108 -5 -11 -8 -10 -17 4 -20 31 -72 87 -90 97 -32 17 -95 26
-129 19z"/>
<path d="M4531 5879 c-48 -10 -82 -38 -109 -90 -51 -96 -3 -221 137 -359 47
-47 112 -103 144 -124 68 -47 63 -48 194 58 227 186 290 387 152 489 -70 51
-173 34 -238 -39 -23 -26 -41 -51 -41 -55 0 -19 -16 -7 -38 29 -43 69 -125
107 -201 91z"/>
<path d="M5967 5879 c-82 -14 -131 -78 -130 -171 1 -85 46 -170 143 -268 71
-72 196 -170 217 -170 21 0 174 123 232 187 117 127 156 259 103 345 -33 54
-78 78 -143 78 -70 0 -124 -30 -165 -91 l-30 -46 -22 38 c-43 74 -123 113
-205 98z"/>
<path d="M7395 5878 c-43 -9 -88 -46 -112 -92 -24 -47 -13 -140 27 -214 40
-75 130 -170 234 -246 89 -67 83 -67 182 7 89 68 197 186 229 252 68 137 21
272 -101 294 -77 14 -153 -21 -196 -91 -13 -21 -25 -38 -28 -38 -3 0 -15 16
-27 34 -47 73 -130 110 -208 94z"/>
<path d="M9198 5873 c-43 -12 -94 -56 -127 -109 -10 -15 -13 -16 -18 -5 -10
25 -76 92 -104 107 -36 18 -122 18 -159 -1 -16 -8 -42 -32 -57 -52 -24 -32
-28 -45 -28 -102 1 -86 36 -158 125 -254 63 -69 211 -187 233 -187 23 0 201
146 250 204 129 156 143 299 36 379 -39 28 -97 36 -151 20z"/>
<path d="M10269 5880 c-20 -4 -50 -17 -68 -29 -105 -75 -82 -238 54 -388 50
-55 199 -177 231 -190 21 -8 134 76 220 161 102 104 149 191 148 278 -2 110
-73 174 -184 166 -68 -5 -117 -36 -152 -97 l-22 -38 -30 46 c-48 70 -121 104
-197 91z"/>
<path d="M11704 5880 c-84 -18 -134 -82 -134 -173 0 -112 100 -253 271 -380
42 -31 81 -57 87 -57 21 0 168 118 233 187 116 124 154 242 107 332 -28 54
-62 81 -114 90 -77 14 -153 -21 -196 -91 -13 -21 -25 -38 -28 -38 -3 0 -15 16
-27 34 -45 70 -130 110 -199 96z"/>
<path d="M914 5242 c-65 -31 -89 -73 -89 -157 0 -57 5 -81 29 -130 35 -71 169
-211 264 -274 l63 -42 67 47 c98 70 222 198 256 268 61 121 39 234 -54 283
-54 29 -101 29 -157 2 -43 -21 -103 -83 -103 -106 0 -23 -15 -13 -40 27 -52
85 -153 120 -236 82z"/>
<path d="M2341 5238 c-95 -51 -114 -157 -52 -282 41 -82 112 -160 226 -247
l95 -72 58 39 c98 66 237 211 272 285 64 136 26 255 -92 291 -74 22 -156 -14
-209 -93 l-27 -39 -26 40 c-59 90 -162 122 -245 78z"/>
<path d="M3790 5244 c-137 -60 -137 -229 1 -391 47 -54 176 -166 227 -195 l29
-18 73 52 c270 189 363 420 215 533 -84 65 -218 26 -272 -79 -15 -29 -17 -29
-27 -12 -25 44 -73 90 -111 107 -48 22 -88 23 -135 3z"/>
<path d="M5214 5242 c-65 -31 -89 -73 -89 -157 0 -57 5 -81 29 -130 35 -71
169 -211 264 -274 l63 -42 67 47 c97 69 221 199 257 269 40 81 42 173 5 228
-73 108 -228 96 -306 -23 l-26 -40 -29 43 c-57 85 -153 117 -235 79z"/>
<path d="M6641 5238 c-155 -83 -101 -303 117 -484 37 -31 86 -69 110 -86 l43
-30 57 39 c31 21 98 79 149 128 118 116 157 191 151 289 -5 80 -37 126 -103
151 -84 33 -168 2 -224 -82 l-29 -43 -26 40 c-59 90 -162 122 -245 78z"/>
<path d="M8085 5246 c-17 -7 -43 -28 -58 -45 -99 -119 -13 -316 213 -487 110
-83 97 -81 176 -25 150 105 262 242 284 346 38 182 -148 294 -286 172 -19 -16
-42 -44 -51 -61 -15 -29 -17 -29 -27 -12 -60 102 -165 149 -251 112z"/>
<path d="M9514 5241 c-65 -29 -89 -72 -89 -156 0 -57 5 -81 29 -130 35 -71
168 -209 264 -274 l63 -42 67 47 c96 68 211 188 250 261 59 113 53 202 -18
267 -64 58 -144 60 -217 7 -22 -16 -50 -45 -63 -65 l-22 -36 -29 44 c-21 30
-47 53 -81 70 -61 31 -98 32 -154 7z"/>
<path d="M10941 5238 c-97 -52 -116 -164 -50 -290 39 -73 152 -191 251 -262
l68 -47 57 38 c94 62 235 208 271 282 86 173 -18 337 -184 291 -46 -13 -118
-74 -129 -111 -9 -28 -17 -24 -43 21 -50 88 -158 123 -241 78z"/>
<path d="M195 4614 c-46 -24 -63 -43 -81 -90 -45 -118 54 -293 250 -441 99
-74 93 -74 187 -7 103 74 199 178 239 256 39 79 42 167 7 219 -81 120 -250
101 -320 -35 l-15 -30 -15 30 c-20 39 -75 90 -110 103 -41 16 -107 13 -142 -5z"/>
<path d="M1614 4605 c-118 -71 -99 -240 46 -398 62 -67 211 -187 233 -187 54
0 285 220 331 315 41 83 42 165 4 222 -69 104 -225 96 -301 -17 l-32 -47 -25
40 c-57 92 -170 124 -256 72z"/>
<path d="M3050 4608 c-54 -37 -73 -71 -78 -138 -4 -55 -1 -69 33 -136 25 -52
58 -97 108 -147 74 -74 194 -167 217 -167 22 0 161 109 226 177 119 124 163
260 112 347 -41 70 -106 98 -193 82 -41 -8 -108 -64 -132 -110 l-15 -30 -15
30 c-53 102 -181 147 -263 92z"/>
<path d="M4495 4614 c-46 -24 -63 -43 -81 -90 -35 -93 7 -203 125 -327 70 -74
201 -177 224 -177 21 0 172 118 227 176 31 34 73 88 91 120 31 53 34 67 34
136 0 62 -4 82 -21 105 -84 114 -248 92 -317 -41 l-15 -30 -15 30 c-20 39 -75
90 -110 103 -41 16 -107 13 -142 -5z"/>
<path d="M5916 4607 c-122 -69 -101 -245 46 -403 65 -69 210 -184 233 -184 23
0 167 114 233 184 119 128 159 260 103 349 -66 107 -227 100 -305 -14 l-31
-44 -31 44 c-58 86 -166 115 -248 68z"/>
<path d="M7350 4608 c-54 -37 -73 -71 -78 -138 -4 -55 -1 -69 33 -136 25 -52
58 -97 108 -147 73 -74 194 -167 217 -167 31 0 205 145 264 220 93 118 117
217 74 299 -13 25 -35 53 -49 64 -31 22 -94 32 -144 23 -41 -8 -108 -64 -132
-110 l-15 -30 -15 30 c-53 102 -181 147 -263 92z"/>
<path d="M8794 4616 c-63 -28 -101 -106 -90 -185 10 -72 53 -147 130 -229 71
-75 204 -182 227 -182 23 0 145 95 219 170 94 96 133 169 138 260 3 55 0 70
-20 100 -36 53 -83 80 -140 80 -76 0 -144 -42 -180 -113 l-14 -28 -25 37 c-43
66 -92 97 -157 101 -34 2 -69 -2 -88 -11z"/>
<path d="M10222 4613 c-66 -32 -100 -116 -81 -201 13 -65 66 -153 132 -220 61
-62 202 -172 222 -172 23 0 168 114 234 185 147 158 167 330 46 400 -84 50
-189 22 -250 -66 l-31 -45 -24 39 c-37 59 -102 97 -164 97 -28 0 -66 -8 -84
-17z"/>
<path d="M11649 4607 c-76 -51 -100 -142 -62 -239 38 -99 151 -224 287 -318
56 -38 64 -36 155 34 164 126 261 266 261 374 -1 51 -31 115 -69 142 -37 25
-93 36 -146 26 -40 -8 -108 -64 -131 -108 l-15 -29 -32 48 c-60 89 -172 121
-248 70z"/>
<path d="M965 3995 c-76 -27 -121 -106 -108 -190 15 -101 101 -222 232 -325
132 -104 118 -101 197 -45 175 124 289 280 289 395 0 165 -183 237 -300 116
-22 -22 -45 -50 -50 -60 -10 -17 -13 -15 -38 23 -53 80 -143 115 -222 86z"/>
<path d="M2408 4000 c-116 -35 -152 -169 -82 -301 33 -63 184 -218 266 -273
l56 -38 64 43 c91 61 227 202 262 272 33 67 43 139 27 190 -15 45 -68 92 -121
108 -72 22 -165 -21 -205 -95 -11 -20 -22 -36 -25 -36 -3 0 -13 13 -23 29 -25
43 -82 89 -124 100 -43 12 -57 13 -95 1z"/>
<path d="M3835 3998 c-42 -15 -93 -65 -106 -106 -17 -50 -5 -121 32 -194 37
-74 160 -202 257 -267 l63 -42 36 23 c116 71 248 208 294 303 103 213 -98 389
-267 233 -24 -22 -46 -48 -49 -59 -9 -28 -17 -23 -46 25 -19 31 -42 50 -80 69
-56 29 -86 32 -134 15z"/>
<path d="M5254 3992 c-79 -38 -113 -113 -94 -208 15 -70 92 -187 168 -254 74
-64 174 -140 187 -140 6 0 54 34 107 75 166 128 251 252 251 366 0 165 -181
236 -298 115 -22 -22 -45 -50 -50 -60 -10 -17 -13 -15 -38 23 -56 85 -154 119
-233 83z"/>
<path d="M6697 3996 c-73 -26 -107 -80 -107 -168 0 -87 43 -164 153 -273 51
-51 118 -109 149 -129 l56 -38 64 43 c140 94 271 253 293 357 19 88 -22 169
-103 204 -80 36 -179 -1 -232 -86 l-22 -36 -27 37 c-16 21 -37 46 -49 56 -23
21 -87 46 -117 46 -11 0 -37 -6 -58 -13z"/>
<path d="M8136 4000 c-40 -12 -93 -66 -107 -108 -16 -48 -5 -121 28 -189 34
-70 168 -210 262 -273 l63 -42 50 34 c194 136 308 286 308 407 0 121 -99 201
-210 171 -44 -12 -125 -78 -135 -111 -9 -28 -17 -23 -46 25 -19 31 -42 50 -80
69 -55 28 -83 31 -133 17z"/>
<path d="M9554 3992 c-110 -52 -130 -174 -52 -311 39 -68 149 -179 242 -245
79 -57 64 -61 200 46 147 116 229 241 229 349 0 165 -181 236 -298 115 -22
-22 -45 -50 -50 -60 -10 -17 -13 -15 -38 23 -56 85 -154 119 -233 83z"/>
<path d="M10997 3996 c-73 -26 -107 -80 -107 -168 0 -121 121 -280 307 -405
l52 -35 82 58 c207 149 312 326 265 447 -55 144 -240 151 -326 13 l-22 -36
-27 37 c-16 21 -37 46 -49 56 -23 21 -87 46 -117 46 -11 0 -37 -6 -58 -13z"/>
<path d="M235 3366 c-98 -42 -122 -166 -59 -293 34 -68 167 -206 260 -270 l62
-43 73 52 c225 158 333 351 267 478 -62 120 -217 120 -307 -2 l-34 -46 -31 46
c-54 79 -152 112 -231 78z"/>
<path d="M1655 3357 c-48 -27 -85 -93 -85 -152 1 -118 118 -273 305 -404 l58
-40 61 42 c86 60 226 202 261 267 26 47 30 66 30 132 0 62 -4 82 -21 104 -35
47 -70 67 -126 71 -70 6 -131 -26 -174 -89 l-31 -46 -34 47 c-63 85 -163 113
-244 68z"/>
<path d="M3105 3366 c-44 -20 -82 -65 -94 -113 -14 -50 -2 -112 35 -184 33
-66 157 -195 247 -257 l72 -50 55 36 c30 20 98 79 150 132 163 163 199 292
109 395 -77 87 -211 68 -285 -40 l-28 -42 -27 37 c-63 86 -158 122 -234 86z"/>
<path d="M4535 3366 c-37 -16 -82 -67 -91 -102 -12 -47 2 -131 32 -190 34 -69
166 -206 260 -271 l62 -43 73 52 c226 158 334 353 267 478 -65 120 -217 120
-307 -2 l-34 -46 -31 46 c-54 79 -152 112 -231 78z"/>
<path d="M5965 3364 c-46 -24 -63 -43 -81 -90 -48 -127 63 -313 275 -462 l73
-52 62 43 c86 59 226 202 260 266 37 70 46 161 21 215 -59 124 -228 127 -311
4 l-31 -46 -34 46 c-61 83 -159 115 -234 76z"/>
<path d="M7404 3366 c-70 -31 -112 -116 -98 -194 19 -104 139 -256 284 -357
l74 -53 60 41 c201 136 328 328 296 446 -42 157 -234 176 -329 32 l-28 -41
-24 37 c-41 63 -92 96 -151 100 -32 2 -66 -2 -84 -11z"/>
<path d="M8835 3366 c-37 -16 -82 -67 -91 -102 -12 -46 2 -131 31 -190 33 -68
165 -205 261 -271 l62 -43 71 51 c168 118 279 265 289 382 7 101 -68 186 -166
187 -68 0 -145 -49 -178 -113 l-15 -28 -32 48 c-55 80 -153 114 -232 79z"/>
<path d="M10255 3357 c-56 -31 -88 -94 -82 -164 8 -116 120 -264 286 -381 l73
-51 61 42 c96 65 227 202 262 272 25 50 30 72 30 131 0 62 -3 75 -29 108 -32
43 -78 66 -131 66 -71 0 -150 -50 -175 -111 -13 -30 -30 -39 -30 -16 0 24 -63
90 -104 108 -55 25 -112 24 -161 -4z"/>
<path d="M11685 3356 c-86 -53 -105 -157 -49 -270 36 -75 146 -193 248 -267
l78 -58 62 41 c33 23 100 80 148 128 104 104 153 192 152 275 -3 185 -222 239
-330 83 l-32 -47 -23 36 c-43 65 -92 96 -157 100 -47 3 -64 0 -97 -21z"/>
<path d="M981 2750 c-118 -27 -160 -157 -93 -292 17 -35 56 -92 87 -126 55
-60 220 -192 240 -192 6 0 49 29 97 65 167 126 263 262 263 374 0 185 -224
239 -330 81 l-30 -45 -30 45 c-46 69 -130 106 -204 90z"/>
<path d="M2415 2748 c-121 -25 -160 -165 -85 -306 40 -75 130 -170 234 -246
66 -49 81 -57 100 -48 43 20 145 103 213 175 114 120 154 229 119 322 -53 138
-236 146 -318 13 -13 -21 -25 -37 -28 -37 -3 0 -18 19 -35 41 -56 76 -117 103
-200 86z"/>
<path d="M3851 2750 c-39 -9 -77 -35 -105 -74 -33 -44 -29 -144 8 -221 34 -69
177 -218 267 -279 55 -36 58 -37 85 -23 53 28 192 146 235 200 89 110 122 233
84 306 -44 86 -154 120 -241 73 -21 -11 -73 -66 -94 -99 -9 -14 -12 -15 -17
-4 -10 24 -76 92 -102 105 -37 19 -81 24 -120 16z"/>
<path d="M5281 2750 c-78 -18 -126 -84 -125 -172 2 -114 95 -248 262 -373 48
-36 91 -65 97 -65 20 0 185 132 240 192 111 124 149 256 96 341 -72 116 -240
105 -313 -22 l-22 -38 -30 46 c-47 70 -131 107 -205 91z"/>
<path d="M6721 2749 c-54 -11 -81 -30 -107 -75 -73 -125 21 -308 247 -477 42
-31 81 -57 87 -57 21 0 168 118 233 187 130 138 162 273 88 368 -73 92 -230
70 -295 -41 l-27 -45 -21 37 c-43 75 -129 119 -205 103z"/>
<path d="M8151 2750 c-39 -9 -77 -35 -105 -74 -33 -44 -29 -144 8 -221 34 -69
177 -218 267 -279 55 -36 58 -37 85 -23 53 28 192 146 235 200 115 144 131
283 40 360 -56 46 -132 54 -197 19 -21 -11 -73 -66 -94 -99 -9 -14 -12 -15
-17 -4 -10 24 -76 92 -102 105 -37 19 -81 24 -120 16z"/>
<path d="M9581 2750 c-77 -18 -126 -83 -126 -170 0 -113 96 -249 263 -375 48
-36 91 -65 97 -65 19 0 183 130 234 186 134 147 163 291 76 379 -83 82 -224
56 -287 -54 l-22 -38 -31 46 c-49 71 -130 107 -204 91z"/>
<path d="M11016 2748 c-83 -18 -126 -76 -126 -171 0 -112 99 -252 271 -380 42
-31 81 -57 87 -57 21 0 168 118 233 187 109 116 149 227 115 318 -54 141 -242
146 -322 8 l-27 -44 -21 37 c-44 77 -130 119 -210 102z"/>
<path d="M234 2112 c-65 -31 -89 -73 -89 -157 0 -56 5 -81 28 -127 36 -74 143
-188 246 -261 l81 -59 67 48 c98 69 212 188 252 262 45 87 52 160 19 221 -65
122 -231 117 -314 -9 l-26 -40 -29 43 c-57 85 -153 117 -235 79z"/>
<path d="M1660 2107 c-121 -64 -115 -221 14 -379 42 -52 143 -141 223 -197
l33 -22 62 42 c101 68 229 203 268 281 29 60 32 75 28 131 -5 81 -36 127 -103
152 -84 33 -175 -1 -225 -83 -25 -42 -40 -53 -40 -29 0 23 -60 85 -103 106
-56 27 -103 27 -157 -2z"/>
<path d="M3105 2116 c-67 -29 -113 -119 -99 -194 21 -116 142 -264 308 -378
49 -33 50 -33 78 -16 65 38 200 157 244 215 63 84 87 140 88 207 1 161 -168
235 -290 127 -19 -16 -42 -44 -51 -61 -15 -29 -17 -29 -27 -12 -60 102 -165
149 -251 112z"/>
<path d="M4530 2108 c-68 -35 -85 -66 -85 -151 0 -59 5 -83 28 -129 36 -74
143 -188 245 -261 l81 -58 68 47 c99 70 212 188 253 264 29 55 35 75 35 131 0
54 -5 72 -25 102 -29 43 -91 77 -141 77 -53 0 -119 -39 -159 -92 l-34 -47 -17
27 c-27 44 -60 73 -103 93 -54 25 -93 24 -146 -3z"/>
<path d="M5961 2108 c-97 -52 -116 -164 -50 -290 39 -73 152 -191 251 -261
l67 -48 63 42 c98 66 229 203 266 278 59 119 36 231 -58 279 -85 44 -192 10
-242 -78 -13 -22 -25 -40 -28 -40 -3 0 -14 17 -25 37 -48 89 -160 126 -244 81z"/>
<path d="M7405 2116 c-67 -29 -113 -119 -99 -194 21 -119 146 -269 318 -385
38 -25 40 -26 69 -9 54 32 182 143 230 200 26 31 59 82 74 112 63 131 10 267
-111 285 -76 12 -141 -20 -196 -97 l-29 -39 -15 28 c-46 89 -158 135 -241 99z"/>
<path d="M8830 2108 c-69 -36 -85 -66 -85 -156 0 -66 4 -85 30 -132 34 -64
184 -217 267 -273 l57 -39 68 48 c99 71 213 189 251 261 59 113 53 202 -18
267 -84 75 -199 55 -272 -49 l-32 -45 -17 28 c-27 44 -59 73 -103 93 -54 25
-93 24 -146 -3z"/>
<path d="M10260 2108 c-96 -49 -115 -164 -49 -290 39 -73 152 -191 251 -261
l67 -48 63 42 c86 58 227 202 262 268 41 76 46 170 14 226 -66 115 -241 107
-310 -15 -13 -22 -25 -40 -28 -40 -3 0 -15 18 -28 40 -50 88 -157 122 -242 78z"/>
<path d="M11705 2116 c-43 -19 -81 -65 -96 -114 -35 -120 80 -299 285 -443
l69 -49 29 18 c46 26 175 136 217 184 144 164 154 323 26 395 -83 47 -174 18
-245 -79 l-26 -36 -35 46 c-57 79 -150 111 -224 78z"/>
<path d="M974 1482 c-69 -44 -98 -130 -74 -218 17 -60 74 -147 139 -213 61
-60 192 -161 210 -161 39 0 225 159 286 244 58 82 79 141 73 212 -5 61 -26 96
-79 132 -29 20 -44 23 -95 20 -69 -4 -118 -33 -157 -94 -12 -18 -24 -34 -27
-34 -3 0 -15 16 -27 34 -39 61 -88 90 -157 94 -47 2 -68 -1 -92 -16z"/>
<path d="M2412 1484 c-42 -22 -69 -56 -83 -106 -31 -119 72 -287 264 -430 43
-32 84 -58 91 -58 21 0 167 114 227 176 66 70 108 139 126 207 31 122 -45 227
-164 227 -63 0 -119 -33 -159 -91 l-30 -45 -28 41 c-16 23 -44 52 -63 65 -45
31 -134 38 -181 14z"/>
<path d="M3839 1477 c-18 -12 -44 -38 -57 -57 -20 -30 -23 -45 -20 -100 6
-113 79 -223 225 -340 126 -101 122 -100 190 -55 87 57 235 210 266 275 54
112 43 212 -31 268 -30 23 -45 27 -102 27 -79 0 -123 -24 -166 -92 l-26 -42
-32 47 c-59 88 -172 120 -247 69z"/>
<path d="M5274 1482 c-71 -45 -99 -128 -74 -218 17 -58 77 -152 138 -213 57
-57 194 -161 212 -161 23 0 143 93 217 167 50 50 83 95 108 147 34 67 37 81
33 136 -5 67 -24 101 -79 138 -29 20 -44 23 -95 20 -69 -4 -118 -33 -157 -94
-12 -18 -24 -34 -27 -34 -3 0 -15 16 -27 34 -39 61 -88 90 -157 94 -47 2 -68
-1 -92 -16z"/>
<path d="M6712 1483 c-42 -20 -69 -55 -83 -105 -31 -119 72 -287 264 -430 43
-32 85 -58 92 -58 8 0 49 27 93 60 242 182 328 378 218 498 -32 36 -70 52
-123 52 -63 0 -119 -33 -159 -91 l-30 -45 -29 42 c-59 86 -160 118 -243 77z"/>
<path d="M8139 1477 c-18 -12 -44 -38 -57 -57 -34 -50 -28 -142 13 -225 36
-70 151 -191 248 -260 78 -55 75 -55 173 18 88 67 197 185 227 248 54 110 43
211 -31 267 -30 23 -45 27 -102 27 -79 0 -123 -24 -166 -92 l-26 -42 -32 47
c-59 88 -172 120 -247 69z"/>
<path d="M9571 1478 c-112 -76 -107 -212 14 -366 47 -60 171 -169 240 -211 31
-19 47 -11 163 84 152 126 228 247 220 356 -5 63 -23 97 -72 133 -21 16 -42
21 -95 21 -59 0 -72 -4 -105 -28 -20 -16 -47 -44 -59 -63 -12 -18 -24 -34 -27
-34 -3 0 -15 16 -27 34 -39 61 -88 90 -157 94 -51 3 -66 0 -95 -20z"/>
<path d="M11012 1483 c-63 -31 -100 -109 -88 -186 10 -62 61 -151 128 -223 60
-65 209 -184 229 -184 24 0 140 90 215 164 99 100 144 183 145 268 2 107 -66
178 -168 178 -64 0 -119 -33 -160 -93 l-32 -48 -15 28 c-19 38 -75 89 -109
102 -41 16 -107 13 -145 -6z"/>
<path d="M274 862 c-113 -53 -132 -185 -44 -320 55 -86 100 -133 205 -213 109
-83 96 -84 234 27 146 118 224 238 224 345 0 165 -181 236 -298 115 -22 -22
-45 -50 -50 -60 -10 -17 -13 -15 -38 23 -56 85 -154 119 -233 83z"/>
<path d="M1717 866 c-73 -26 -107 -80 -107 -168 0 -87 43 -164 153 -273 51
-51 118 -109 149 -129 l56 -38 64 43 c140 94 271 253 293 357 19 88 -22 169
-103 204 -80 36 -179 -1 -232 -86 l-22 -36 -27 37 c-16 21 -37 46 -49 56 -23
21 -87 46 -117 46 -11 0 -37 -6 -58 -13z"/>
<path d="M3156 870 c-40 -12 -93 -66 -107 -108 -40 -121 69 -301 270 -446 l82
-59 57 39 c87 59 235 210 267 274 40 79 45 164 14 219 -27 49 -69 78 -127 87
-61 10 -141 -31 -179 -91 -15 -24 -30 -44 -33 -44 -3 0 -17 19 -31 43 -19 31
-42 50 -80 69 -55 28 -83 31 -133 17z"/>
<path d="M4574 862 c-49 -24 -80 -61 -95 -115 -34 -128 86 -304 318 -466 39
-27 46 -24 164 69 200 158 281 335 206 449 -64 96 -188 104 -272 17 -22 -22
-45 -50 -50 -60 -10 -17 -13 -15 -38 23 -56 85 -154 119 -233 83z"/>
<path d="M6017 866 c-73 -26 -107 -80 -107 -168 0 -87 43 -164 153 -273 51
-51 118 -109 149 -130 l57 -37 68 48 c154 108 275 262 289 368 16 116 -81 218
-192 201 -51 -7 -113 -50 -144 -99 l-22 -36 -27 37 c-16 21 -37 46 -49 56 -23
21 -87 46 -117 46 -11 0 -37 -6 -58 -13z"/>
<path d="M7455 869 c-41 -11 -91 -62 -106 -106 -16 -51 -6 -123 27 -190 35
-70 171 -211 262 -272 l64 -43 56 38 c95 64 234 210 270 283 70 142 18 275
-116 297 -61 10 -141 -31 -179 -91 -15 -24 -30 -44 -33 -44 -3 0 -18 19 -33
44 -19 30 -43 51 -79 69 -54 27 -82 30 -133 15z"/>
<path d="M8874 862 c-72 -34 -111 -108 -99 -187 16 -110 132 -258 288 -369
l68 -48 52 34 c249 166 368 380 283 508 -41 62 -113 90 -184 71 -48 -13 -85
-41 -122 -92 l-28 -39 -26 40 c-55 84 -154 118 -232 82z"/>
<path d="M10300 858 c-63 -33 -83 -66 -88 -143 -7 -107 49 -205 189 -330 35
-32 87 -73 116 -93 l52 -34 68 48 c154 108 275 262 289 368 16 116 -81 218
-192 201 -51 -7 -113 -50 -144 -99 l-22 -36 -27 37 c-39 52 -63 73 -108 89
-54 19 -83 17 -133 -8z"/>
<path d="M11759 870 c-114 -34 -150 -162 -83 -296 34 -69 177 -217 267 -278
l58 -39 57 39 c94 64 235 211 268 279 39 81 41 174 4 227 -29 44 -64 65 -118
74 -61 10 -141 -32 -179 -91 -15 -24 -30 -44 -33 -44 -3 0 -18 19 -33 44 -19
30 -43 51 -79 69 -53 27 -83 30 -129 16z"/>
</g>
</svg>
